PathFileType	4	(X/Y/Z)	D:\Share\Shared_Data\Ergonomics\Sit To Stand Pertubation\S3\S3 Cal 01.trc
DataRate	CameraRate	NumFrames	NumMarkers	Units	OrigDataRate	OrigDataStartFrame	OrigNumFrames	
100	100	9	21	mm	100	103	204
Frame#	Time	R_ASIS			R_Pelvis			V_Sacral			L_Pelvis			L_ASIS			Clavical			R_Acromium			L_Acromium			Sternum			Torso			R_Thigh_Med			R_Thigh_Lat			R_Thigh			R_Shank_Med			R_Shank_Lat			R_Shank			R_Heel			R_Toe			RAJC			RHJC			RKJC			
		X1	Y1	Z1	X2	Y2	Z2	X3	Y3	Z3	X4	Y4	Z4	X5	Y5	Z5	X6	Y6	Z6	X7	Y7	Z7	X8	Y8	Z8	X9	Y9	Z9	X10	Y10	Z10	X11	Y11	Z11	X12	Y12	Z12	X13	Y13	Z13	X14	Y14	Z14	X15	Y15	Z15	X16	Y16	Z16	X17	Y17	Z17	X18	Y18	Z18	X19	Y19	Z19	X20	Y20	Z20	X21	Y21	Z21	

103	1.02	307.04111	940.78235	126.78726	196.93994	955.11749	178.60725	93.978699	992.14594	-14.311327	205.46428	963.61389	-208.4007	307.18484	930.77673	-156.80925	275.78726	1376.1389	-14.377592	192.78362	1425.9036	149.92421	217.55499	1427.0459	-169.63185	308.56503	1302.9673	-9.2422237	282.03461	1361.7311	-81.630363	256.2807	468.67041	31.724016	224.08894	457.21912	130.80081	312.96841	661.49652	89.597908	181.11533	104.99811	73.345146	165.91719	98.761749	153.71416	164.35513	284.95215	157.89719	110.31988	56.401436	114.80387	328.00708	55.998455	103.79585	173.51626	101.8799295	113.529653	221.8055229	862.5819211	88.53617726	240.18482	462.944765	81.262413
104	1.03	306.96188	940.77734	126.75448	196.81105	955.11847	178.54478	93.940727	992.22443	-14.402117	205.4619	963.61975	-208.47104	307.17032	930.74414	-156.84349	275.83447	1376.1073	-14.420688	192.79131	1425.8951	149.86183	217.59526	1427.0637	-169.645	308.58975	1302.9362	-9.2816849	282.07272	1361.7271	-81.650352	256.16519	468.58258	31.737999	224.04536	457.23495	130.76306	312.90634	661.48859	89.574432	181.12358	105.01994	73.347069	165.92383	98.752373	153.74136	164.34134	284.94711	157.88017	110.30964	56.417515	114.83505	328.0007	56.003254	103.79346	173.523705	101.8861565	113.5442145	221.6975319	862.6107082	88.48975605	240.105275	462.908765	81.2505295
105	1.04	306.88345	940.75708	126.72804	196.74486	955.12225	178.4785	93.893837	992.242	-14.511037	205.46848	963.61273	-208.51768	307.13818	930.7384	-156.86571	275.85541	1376.0862	-14.454629	192.78761	1425.9004	149.82338	217.63454	1427.0841	-169.65759	308.59094	1302.9199	-9.2985439	282.08273	1361.7405	-81.684097	256.20901	468.69101	31.699017	224.04797	457.24478	130.78178	312.87061	661.49255	89.550941	181.10262	105.047	73.396019	165.96828	98.751915	153.75304	164.32625	284.957	157.85582	110.31976	56.410107	114.81779	328.00885	55.999622	103.7921	173.53545	101.8994575	113.5745295	221.6141565	862.6067047	88.44572407	240.12849	462.967895	81.2403985
106	1.05	306.81415	940.742	126.70681	196.6787	955.12994	178.38097	93.858383	992.26788	-14.621381	205.46634	963.61487	-208.63495	307.15378	930.72241	-156.90186	275.86514	1376.079	-14.466811	192.76541	1425.884	149.78235	217.64534	1427.0878	-169.68015	308.56995	1302.9044	-9.346693	282.08936	1361.7072	-81.695541	256.50119	468.46552	31.702557	224.03047	457.24179	130.74693	312.83514	661.49017	89.507767	181.12085	105.04359	73.399475	165.84955	98.791969	153.67929	164.31279	284.93387	157.81342	110.33159	56.395702	114.84077	328.00711	55.997246	103.79179	173.4852	101.9177795	113.5393825	221.537436	862.603146	88.39609004	240.26583	462.853655	81.2247435
107	1.06	306.7688	940.72455	126.68172	196.59215	955.11896	178.31047	93.832672	992.26703	-14.697602	205.48251	963.62665	-208.69833	307.14935	930.69257	-156.93384	275.8591	1376.0493	-14.513358	192.72865	1425.8652	149.7489	217.66055	1427.1165	-169.66756	308.54126	1302.8812	-9.3842525	282.05814	1361.7042	-81.725342	256.3942	468.34821	31.673286	224.04147	457.23831	130.73058	312.79977	661.49115	89.481606	181.11295	104.97079	73.21637	165.92943	98.779137	153.7485	164.31284	284.94226	157.80133	110.2981	56.428978	114.80859	328.02838	56.004253	103.80112	173.52119	101.8749635	113.482435	221.4877694	862.5909021	88.36053134	240.217835	462.79326	81.201933
108	1.07	306.68253	940.71906	126.64806	196.50256	955.11359	178.21252	93.80304	992.2688	-14.74547	205.50066	963.62286	-208.73528	307.11487	930.6759	-156.96152	275.85153	1376.0695	-14.49794	192.67972	1425.8407	149.71245	217.66579	1427.1304	-169.68213	308.53278	1302.8778	-9.3839293	282.03134	1361.7079	-81.771255	256.42331	468.40103	31.631615	224.04977	457.24533	130.74901	312.76428	661.49341	89.441116	181.12898	105.0587	73.396187	165.98245	98.813393	153.3792	164.3051	284.94254	157.77921	110.28677	56.417286	114.7945	328.01001	56.004684	103.78394	173.555715	101.9360465	113.3876935	221.4082763	862.5914149	88.31509967	240.23654	462.82318	81.1903125
109	1.08	306.60809	940.70465	126.61601	196.48094	955.11841	178.14853	93.764786	992.2605	-14.807529	205.49083	963.63013	-208.82214	307.08121	930.66321	-156.98643	275.84912	1376.0582	-14.513835	192.63681	1425.8251	149.68456	217.65935	1427.1344	-169.72278	308.49597	1302.8704	-9.3835859	282.01294	1361.7296	-81.776863	256.5062	468.31293	31.603418	224.01218	457.25897	130.7132	312.74136	661.48944	89.422401	181.11528	104.97976	73.233574	166.00378	98.780563	153.41031	164.2789	284.93564	157.76895	110.29095	56.424309	114.77052	328.01245	55.996956	103.78034	173.55953	101.8801615	113.321942	221.3399223	862.5820303	88.2714238	240.25919	462.78595	81.158309
110	1.09	306.56339	940.69574	126.58498	196.42282	955.12061	178.10826	93.723541	992.276	-14.860897	205.48526	963.63428	-208.86307	307.06842	930.66113	-157.00621	275.81918	1376.0342	-14.525606	192.55708	1425.8141	149.64383	217.64232	1427.1257	-169.75679	308.44852	1302.8813	-9.3870039	282.01517	1361.7238	-81.780045	256.44147	468.29504	31.602343	224.00099	457.25516	130.69626	312.68311	661.49951	89.395645	181.09038	104.93307	73.174019	165.93994	98.778564	153.66861	164.26579	284.96524	157.76379	110.295	56.433052	114.80904	328.0097	56.000469	103.79646	173.51516	101.855817	113.4213145	221.2903647	862.5851227	88.23055771	240.22123	462.7751	81.1493015
111	1.1	306.51248	940.68695	126.54681	196.35265	955.11115	178.06773	93.676872	992.263	-14.910136	205.47585	963.63037	-208.88823	307.03018	930.64771	-157.04297	275.79843	1376.0389	-14.526298	192.52893	1425.8096	149.65193	217.67758	1427.1539	-169.76097	308.43286	1302.8837	-9.376297	282.0062	1361.7197	-81.797882	256.37073	468.3071	31.568151	223.98943	457.26349	130.71725	312.64279	661.50336	89.379913	181.10919	104.92566	73.126083	165.98166	98.77652	153.67465	164.23248	284.9509	157.72452	110.292	56.423702	114.80255	328.0112	56.003166	103.7933	173.545425	101.85109	113.4003665	221.2417187	862.5752564	88.1900892	240.18008	462.785295	81.1427005
